<?xml version="1.0" standalone="no"?>
<!DOCTYPE svg PUBLIC "-//W3C//DTD SVG 20010904//EN"
 "http://www.w3.org/TR/2001/REC-SVG-20010904/DTD/svg10.dtd">
<svg version="1.0" xmlns="http://www.w3.org/2000/svg"
 width="948.000000pt" height="948.000000pt" viewBox="0 0 948.000000 948.000000"
 preserveAspectRatio="xMidYMid meet">
<metadata>
Created by potrace 1.11, written by Peter Selinger 2001-2013
</metadata>
<g transform="translate(0.000000,948.000000) scale(0.100000,-0.100000)"
fill="#000000" stroke="none">
<path d="M4499 9476 c-2 -2 -44 -7 -93 -11 -50 -4 -98 -8 -107 -10 -10 -2 -44
-6 -75 -10 -168 -18 -465 -94 -649 -166 -177 -69 -467 -227 -559 -304 -14 -11
-39 -31 -57 -45 -141 -108 -282 -247 -405 -400 -68 -83 -198 -274 -229 -336
-11 -21 -23 -41 -27 -44 -12 -9 -154 -310 -191 -405 -32 -83 -73 -199 -82
-235 -2 -8 -17 -60 -34 -115 -16 -55 -32 -113 -35 -130 -2 -16 -9 -46 -15 -65
-5 -19 -12 -48 -15 -65 -3 -16 -7 -42 -10 -57 -10 -49 -16 -82 -21 -118 -3
-19 -8 -44 -10 -56 -2 -11 -7 -45 -10 -75 -4 -30 -9 -70 -11 -89 -4 -33 -12
-128 -18 -230 -3 -56 -7 -63 -48 -84 -39 -20 -44 -23 -168 -103 -265 -174
-410 -337 -480 -543 -19 -55 -21 -197 -5 -267 14 -62 63 -175 77 -181 4 -2 8
-9 8 -14 0 -40 232 -285 325 -344 17 -10 32 -21 35 -24 7 -8 141 -94 160 -103
8 -4 33 -18 55 -31 22 -14 63 -37 90 -51 28 -15 57 -33 65 -39 8 -7 26 -17 40
-24 14 -6 43 -23 65 -37 22 -14 47 -28 55 -32 8 -3 17 -9 20 -12 3 -3 23 -16
45 -27 35 -19 167 -95 345 -199 30 -18 109 -63 175 -101 66 -37 122 -71 125
-74 6 -6 84 -49 117 -65 13 -5 23 -13 23 -17 0 -5 4 -8 9 -8 6 0 279 -155 351
-200 13 -8 183 -107 259 -150 14 -8 50 -30 79 -48 29 -17 54 -32 56 -32 3 0
39 -20 80 -45 42 -25 81 -45 86 -45 6 0 10 -4 10 -9 0 -5 8 -11 18 -15 9 -3
24 -10 32 -16 12 -8 178 -105 400 -232 19 -11 100 -58 178 -104 217 -127 211
-125 247 -103 17 10 41 24 55 32 28 15 191 110 248 144 20 12 44 25 52 30 8 4
60 34 115 67 55 33 116 68 135 78 19 10 49 27 65 38 17 10 53 31 80 46 28 14
62 35 77 45 14 11 29 19 33 19 3 0 31 16 62 36 31 19 65 40 77 45 12 6 30 15
41 22 88 54 147 87 155 87 4 0 10 3 12 8 4 9 235 142 248 142 6 0 10 5 10 10
0 6 5 10 10 10 6 0 34 15 63 33 29 18 59 36 67 40 8 4 29 16 46 26 29 17 254
148 314 182 14 8 28 19 32 24 4 6 8 6 8 1 0 -5 8 -2 18 6 9 8 42 28 72 44 30
16 57 32 60 35 3 4 32 22 65 40 33 18 80 45 105 61 25 15 56 33 70 40 25 12
191 109 220 128 8 6 22 13 30 17 13 6 193 110 230 133 8 5 52 30 97 56 45 26
122 77 170 113 93 70 263 230 263 248 0 6 4 13 8 15 13 5 75 97 97 143 102
218 77 430 -75 630 -65 85 -167 183 -260 250 -30 22 -57 42 -60 45 -3 3 -17
11 -32 19 -16 8 -28 18 -28 23 0 4 -5 8 -10 8 -6 0 -29 12 -53 27 -23 15 -58
36 -77 46 -50 27 -54 33 -56 80 -4 88 -13 203 -19 242 -3 22 -7 58 -10 80 -2
22 -6 51 -9 65 -2 14 -9 57 -15 95 -6 39 -14 81 -17 95 -3 14 -8 39 -11 55 -2
17 -7 37 -10 45 -3 8 -7 22 -8 30 -4 25 -13 62 -30 125 -9 33 -18 67 -20 75
-2 8 -20 67 -41 130 -21 63 -39 117 -39 120 -1 3 -5 14 -10 25 -4 11 -17 43
-27 70 -23 61 -24 63 -87 199 -28 59 -51 112 -51 117 0 5 -4 9 -10 9 -5 0 -10
4 -10 9 0 5 -22 47 -48 93 -27 46 -55 94 -63 108 -8 14 -17 27 -20 30 -3 3
-20 28 -39 55 -47 69 -131 177 -198 254 -49 55 -84 90 -195 197 -12 11 -47 40
-77 65 -30 24 -57 46 -60 49 -3 4 -34 26 -70 51 -36 24 -66 47 -68 52 -2 4 -8
7 -14 7 -6 0 -26 11 -45 26 -18 14 -33 22 -33 18 0 -4 -10 2 -22 13 -20 17
-287 153 -302 153 -2 0 -17 5 -33 11 -15 6 -30 11 -33 11 -3 0 -14 5 -25 11
-11 6 -22 12 -25 12 -3 0 -34 10 -70 22 -98 32 -251 74 -280 78 -8 1 -33 6
-55 10 -22 4 -47 8 -55 10 -8 1 -31 5 -50 9 -60 11 -89 15 -158 22 -37 3 -78
8 -92 11 -30 5 -576 13 -581 9z"/>
<path d="M1520 4566 c0 -4 21 -38 48 -75 51 -71 81 -114 97 -140 6 -9 12 -18
15 -21 17 -17 70 -90 70 -97 0 -4 12 -21 26 -38 14 -16 35 -45 46 -65 12 -19
25 -37 28 -40 3 -3 33 -43 65 -90 32 -47 62 -87 65 -90 3 -3 17 -23 30 -45 13
-22 27 -42 32 -45 4 -3 24 -31 45 -62 21 -32 117 -168 213 -303 96 -136 180
-254 185 -263 6 -9 15 -22 22 -29 6 -7 21 -29 34 -50 13 -21 29 -44 37 -52 7
-8 21 -26 30 -40 9 -14 45 -65 79 -112 35 -48 63 -91 63 -97 0 -6 3 -12 8 -14
11 -5 92 -116 92 -127 0 -5 4 -11 8 -13 4 -1 28 -32 52 -68 51 -73 51 -74 83
-115 12 -16 36 -50 52 -75 17 -24 35 -51 42 -60 7 -8 43 -60 82 -115 38 -55
75 -107 83 -116 7 -9 18 -23 23 -32 6 -9 30 -44 54 -79 24 -35 58 -83 75 -108
17 -24 39 -53 49 -64 9 -11 17 -23 17 -26 0 -6 12 -22 50 -67 5 -7 10 -15 10
-18 0 -3 5 -11 10 -18 6 -7 33 -43 60 -82 27 -38 53 -75 58 -81 5 -5 22 -30
38 -55 34 -51 36 -54 69 -95 14 -18 25 -36 25 -42 0 -6 3 -12 8 -14 4 -1 45
-57 91 -123 47 -66 88 -121 93 -123 4 -2 8 -8 8 -13 0 -6 15 -30 33 -54 48
-65 90 -124 107 -150 8 -13 42 -61 75 -107 33 -45 62 -87 64 -92 2 -5 10 -16
17 -25 13 -16 137 -190 343 -484 58 -81 108 -147 112 -147 5 0 31 33 58 73 28
39 68 97 90 127 22 30 62 87 88 125 26 39 50 72 53 75 3 3 21 28 39 55 19 28
38 52 41 55 4 3 13 16 20 29 7 14 17 30 22 35 16 18 265 371 293 414 6 9 16
22 23 30 6 7 17 23 23 35 7 11 16 26 21 31 9 12 74 102 96 133 89 130 318 449
324 451 4 2 8 9 8 16 0 7 8 21 18 32 9 10 35 46 57 79 22 33 42 62 45 65 3 3
28 37 55 75 27 39 53 72 57 73 4 2 8 8 8 14 0 6 14 27 30 48 17 21 30 42 30
48 0 5 7 12 15 16 8 3 15 10 15 16 0 5 7 18 15 27 8 10 46 63 84 118 39 55 75
107 81 115 6 8 58 83 117 165 209 295 235 332 248 354 6 9 12 18 15 21 3 3 75
104 160 224 85 120 169 238 185 261 17 24 50 71 74 106 77 111 86 123 99 137
6 7 12 17 12 21 0 4 8 16 18 27 9 10 31 39 47 64 36 53 37 56 70 96 14 18 25
36 25 42 0 6 4 12 8 14 4 2 50 64 102 138 52 74 98 137 102 138 4 2 8 10 8 18
0 8 5 14 10 14 6 0 10 6 10 14 0 8 4 16 8 18 4 2 28 32 52 68 25 36 49 69 53
75 43 56 86 119 83 123 -4 3 -18 -4 -96 -53 -34 -21 -157 -94 -243 -144 -23
-13 -45 -28 -48 -33 -3 -5 -9 -9 -13 -9 -6 2 -97 -49 -106 -59 -4 -4 -36 -23
-95 -54 -11 -6 -22 -14 -25 -17 -3 -4 -23 -16 -45 -28 -22 -12 -47 -26 -55
-31 -34 -22 -282 -170 -285 -170 -1 0 -51 -30 -111 -66 -60 -37 -127 -76 -149
-88 -22 -12 -42 -24 -45 -27 -3 -3 -43 -28 -90 -55 -47 -27 -86 -52 -88 -56
-2 -5 -8 -8 -13 -8 -5 0 -68 -36 -140 -80 -73 -44 -133 -80 -136 -80 -2 0 -22
-12 -46 -27 -70 -46 -81 -52 -109 -64 -16 -6 -28 -15 -28 -20 0 -5 -4 -9 -9
-9 -10 0 -166 -91 -187 -109 -6 -5 -31 -19 -54 -31 -24 -12 -50 -29 -58 -36
-7 -8 -18 -14 -23 -14 -5 0 -33 -15 -62 -33 -28 -18 -61 -38 -72 -45 -11 -6
-47 -28 -80 -47 -33 -20 -76 -46 -96 -58 -38 -24 -208 -125 -237 -142 -10 -5
-33 -19 -52 -31 -19 -12 -91 -54 -160 -95 -69 -40 -127 -76 -130 -79 -8 -10
-40 -20 -40 -12 0 4 -18 16 -40 26 -22 11 -40 23 -40 28 0 4 -5 8 -11 8 -6 0
-46 21 -88 46 -42 26 -96 58 -121 72 -25 14 -47 28 -50 32 -3 4 -20 13 -37 21
-18 8 -33 17 -33 21 0 3 -6 8 -12 10 -15 4 -511 298 -518 308 -3 3 -21 14 -40
23 -19 10 -68 38 -108 62 -41 25 -77 45 -82 45 -5 0 -10 4 -12 8 -3 7 -63 43
-188 114 -19 11 -41 25 -48 30 -13 12 -55 36 -117 69 -22 12 -42 24 -45 28 -3
3 -15 12 -27 19 -13 6 -33 18 -45 25 -13 6 -25 15 -28 18 -3 3 -10 8 -16 10
-5 2 -85 49 -177 104 -92 55 -175 105 -185 110 -9 6 -96 57 -192 115 -96 58
-182 110 -192 115 -41 24 -215 127 -232 138 -11 7 -44 27 -72 45 -29 17 -58
32 -64 32 -5 0 -10 5 -10 10 0 6 -5 10 -10 10 -6 0 -47 23 -91 50 -44 28 -85
50 -90 50 -5 0 -9 5 -9 10 0 6 -4 10 -9 10 -12 0 -155 82 -163 95 -4 5 -8 6
-8 1z"/>
</g>
</svg>
